<svg version="1.1" id="Layer_1" xmlns="http://www.w3.org/2000/svg" xmlns:xlink="http://www.w3.org/1999/xlink" x="0px" y="0px"
	 width="100%" viewBox="0 0 512 512" enable-background="new 0 0 512 512" xml:space="preserve">
<path fill="#000000" opacity="1.000000" stroke="none" 
	d="
M1.000000,340.468658 
	C2.989872,325.701508 5.839840,311.582489 10.751733,297.983368 
	C19.464069,273.862335 31.560621,251.869339 49.512989,233.087906 
	C81.385590,199.743301 120.403870,180.420715 165.207947,171.482391 
	C182.274368,168.077682 199.449326,166.825455 216.698547,167.827393 
	C229.387405,168.564438 242.014877,170.634705 254.093994,175.059891 
	C256.566254,175.965591 259.126160,176.632126 261.795135,177.455002 
	C265.888123,169.224808 269.636871,161.098618 273.889832,153.245468 
	C286.477173,130.002884 299.492737,106.965218 318.624878,88.293221 
	C326.572968,80.536278 335.364777,73.385902 346.754883,71.236580 
	C368.078064,67.212875 383.071686,78.327118 386.326965,99.308197 
	C389.282898,118.359909 386.332703,136.990311 382.114899,155.511536 
	C375.650574,183.897598 365.805756,211.163055 355.011292,238.142029 
	C348.537964,254.321045 345.227631,270.930389 351.329346,288.117096 
	C353.085693,293.064178 355.917175,297.349945 359.981110,300.695618 
	C364.394226,304.328766 369.227844,304.649597 374.394684,302.258148 
	C386.047882,296.864532 392.844269,286.776703 399.159149,276.374756 
	C410.116211,258.326202 416.432007,238.348877 422.632416,218.344711 
	C423.416687,215.814301 423.185852,214.227600 420.560455,212.669891 
	C401.884644,201.589142 392.883911,185.289841 392.477600,163.344254 
	C392.025787,138.940842 411.152954,116.512474 433.255798,111.253983 
	C439.937744,109.664284 446.816925,108.769691 453.504913,109.954506 
	C457.827606,110.720291 459.271118,109.022644 460.430481,105.797501 
	C463.855743,96.269081 467.187805,86.706947 470.646027,77.190598 
	C478.920746,54.419975 487.264008,31.674257 495.529419,8.900266 
	C496.508514,6.202570 497.890778,3.803014 499.866669,1.318700 
	C504.260040,1.000000 508.520050,1.000000 513.000000,1.000000 
	C513.000000,5.349030 513.000000,9.700387 513.000000,14.525872 
	C508.372375,23.129894 506.014374,32.185837 502.754059,40.846989 
	C493.873657,64.438217 485.628510,88.267944 476.905548,111.919792 
	C475.501465,115.726959 476.169373,117.458443 479.507111,119.913925 
	C491.317261,128.602402 498.726044,140.252853 501.340881,154.891998 
	C504.660522,173.476685 499.350220,189.632187 486.656891,202.933533 
	C476.091309,214.005219 462.688477,220.094803 446.932220,219.277527 
	C442.402924,219.042603 440.439087,220.305740 439.058350,225.036804 
	C431.882019,249.626297 423.424500,273.767273 408.424194,294.919495 
	C400.471893,306.133148 391.274139,316.238739 377.458710,320.241791 
	C362.135895,324.681580 346.476715,317.718018 338.438232,302.817749 
	C331.197418,289.396027 329.783264,274.939209 331.246338,259.844391 
	C332.916016,242.618500 340.352844,227.335098 346.263824,211.533691 
	C355.642700,186.461868 363.725433,161.019608 368.320160,134.615112 
	C370.252930,123.508148 371.077332,112.167725 368.576141,101.004997 
	C365.884613,88.992905 357.080902,85.077248 346.070740,90.365021 
	C333.788452,96.263763 325.598297,106.522034 317.514832,116.868309 
	C305.393158,132.383224 296.164642,149.677322 287.029083,167.024994 
	C277.346985,185.410477 267.790314,203.855652 259.111023,222.743088 
	C258.350403,224.398361 257.439758,226.002106 256.443604,227.528488 
	C253.319427,232.315475 249.864822,233.559784 245.599106,231.543884 
	C241.160233,229.446136 239.196335,224.718079 241.505234,219.699173 
	C244.979568,212.146835 249.021820,204.856049 252.807312,197.446243 
	C253.325821,196.431351 253.756409,195.371536 254.379410,193.998062 
	C245.937042,189.760483 237.043945,187.636292 228.050812,186.469894 
	C188.256119,181.308578 150.758331,189.178864 114.576935,206.008255 
	C105.266945,210.338684 105.301193,217.333084 105.497627,224.732986 
	C106.362488,257.314209 126.416840,284.584167 156.925323,295.205841 
	C169.986557,299.753143 183.366638,299.813690 196.865799,297.598816 
	C199.764816,297.123169 201.449402,295.478302 202.787918,292.892120 
	C210.748932,277.510345 218.863617,262.208160 226.897781,246.864105 
	C228.689026,243.443115 230.935974,240.837769 235.202652,240.646011 
	C242.152451,240.333633 246.344467,245.943695 243.262329,252.168411 
	C236.773636,265.273071 229.989059,278.232361 223.239960,291.206604 
	C217.489609,302.260773 211.604492,313.244751 205.804214,324.273071 
	C188.711609,356.772064 171.616180,389.269623 154.581085,421.798767 
	C153.447708,423.962982 151.992813,426.065430 151.770767,428.633240 
	C152.875198,430.197693 154.443588,430.722534 156.154022,430.600281 
	C164.658340,429.992371 173.054871,431.945648 181.534912,431.633484 
	C187.536392,431.412598 193.389847,433.029663 199.422226,432.754395 
	C202.705948,432.604584 204.716827,431.832550 205.623688,428.472321 
	C209.052811,415.766449 215.065308,404.321106 223.804352,394.536072 
	C233.335068,383.864563 244.752731,375.560211 258.436981,371.010895 
	C265.859650,368.543243 271.240387,373.678314 271.312439,382.807495 
	C271.426819,397.306580 271.550812,411.811646 271.237183,426.304779 
	C271.127991,431.351288 272.696442,434.340576 276.981201,437.212036 
	C300.134460,452.728333 322.847870,468.868378 343.739349,487.412903 
	C346.212067,489.607880 348.825195,491.649170 351.428558,493.691193 
	C354.154785,495.829651 355.354340,498.831299 354.882294,501.987366 
	C354.358307,505.490540 352.673340,508.367981 348.577667,509.491302 
	C344.274597,510.671478 339.690552,510.621155 335.296570,512.791931 
	C318.645782,513.000000 302.291534,513.000000 285.220825,512.731812 
	C283.764404,512.118469 283.053070,511.564392 282.280365,511.458588 
	C258.348541,508.181427 237.647354,498.223083 220.387650,481.324738 
	C217.961487,478.949432 215.897186,478.594666 212.942184,479.959991 
	C204.043167,484.071594 194.632187,486.805908 185.196060,489.264404 
	C165.414642,494.418274 145.419464,497.011871 124.799889,495.541138 
	C106.789047,494.256439 89.759872,489.761200 73.729874,482.086945 
	C57.508305,474.320953 43.109730,463.814972 31.472849,449.649780 
	C20.251051,435.989868 12.009928,420.899048 6.644104,404.144928 
	C3.810289,395.296722 2.202794,386.189453 1.000000,377.000000 
	C1.000000,364.979095 1.000000,352.958221 1.000000,340.468658 
M189.471527,449.305420 
	C172.856812,448.317078 156.248093,447.208435 139.625305,446.382568 
	C128.506744,445.830170 125.300125,440.731964 130.488190,430.774048 
	C146.419205,400.196259 162.489960,369.691345 178.442856,339.124908 
	C182.414810,331.514496 186.889252,324.134308 190.362244,315.259521 
	C162.890427,317.473236 139.311356,309.774841 119.315376,291.898834 
	C99.164215,273.884094 90.208122,250.439957 88.221382,224.012878 
	C83.718704,224.451080 81.493591,226.920654 79.160698,228.897797 
	C33.351959,267.720917 13.525740,317.423645 18.503851,376.891388 
	C20.482096,400.523193 29.636042,421.779938 45.542046,439.621918 
	C75.708954,473.460480 114.637024,482.006317 157.696579,477.066986 
	C177.467834,474.799042 196.356995,468.713043 214.594025,460.686707 
	C220.755829,457.974854 223.311005,458.652435 227.756088,463.724823 
	C231.386978,467.868042 235.099243,471.935822 239.451172,475.324707 
	C262.123993,492.980255 288.571259,497.089294 316.276642,496.552002 
	C318.284393,496.513092 320.337433,496.109131 321.064301,493.721436 
	C321.838196,491.179169 319.835205,490.154510 318.336395,488.920135 
	C299.921906,473.753815 280.428741,460.062347 260.512695,446.973358 
	C255.904755,443.944946 253.524200,440.330292 253.659332,434.660767 
	C253.913345,424.001953 253.720245,413.332520 253.714005,402.667480 
	C253.712219,399.594727 253.713730,396.521942 253.713730,393.108459 
	C249.284500,394.573364 246.399490,396.791779 243.645187,399.202576 
	C230.995621,410.274475 223.630539,424.329712 220.329681,440.657471 
	C218.774353,448.350830 216.338211,450.443359 208.382263,450.246887 
	C202.394714,450.099030 196.414825,449.639557 189.471527,449.305420 
M420.928040,158.549591 
	C433.946411,164.055206 446.952972,169.588943 459.988922,175.052582 
	C465.202332,177.237625 470.443878,179.366501 475.740387,181.338882 
	C480.190460,182.996078 481.893158,179.722122 482.898621,176.494690 
	C483.795227,173.616608 485.975616,170.059235 481.246735,168.071960 
	C461.929749,159.954117 442.627319,151.801575 423.301178,143.705643 
	C420.784088,142.651230 418.571289,143.059631 416.529358,145.191116 
	C411.350159,150.597626 412.460571,154.657516 420.928040,158.549591 
M448.337799,202.587280 
	C452.762634,201.902344 457.273285,201.523453 461.285065,199.263611 
	C464.372223,197.524628 464.715820,195.418442 461.293671,193.942413 
	C446.349121,187.496719 431.356262,181.159927 416.309937,174.955856 
	C413.258545,173.697662 411.448029,175.595062 412.511810,178.848083 
	C413.274536,181.180450 414.502167,183.432663 415.879852,185.480103 
	C423.412964,196.675385 434.321259,201.759583 448.337799,202.587280 
M448.357178,126.821220 
	C446.204620,126.991585 444.054291,127.202065 441.898865,127.319763 
	C440.130280,127.416344 438.346680,127.750687 437.989899,129.706833 
	C437.576874,131.971085 439.760651,132.232727 441.190247,132.842300 
	C451.602386,137.282150 462.024689,141.699585 472.487640,146.017746 
	C474.192932,146.721527 476.284698,148.515808 477.926147,146.454819 
	C479.679810,144.253021 477.650970,142.336380 476.354218,140.743362 
	C469.355072,132.145279 460.274414,127.531876 448.357178,126.821220 
z"/>
<path fill="#000000" opacity="1.000000" stroke="none" 
	d="
M364.059326,367.703827 
	C376.787201,365.091461 389.181793,363.540161 401.729218,362.290527 
	C421.251343,360.346222 437.501343,373.406982 443.502258,387.814423 
	C453.554749,411.949127 438.206818,440.458374 412.568939,445.458527 
	C395.741669,448.740356 382.814880,441.923309 371.180511,431.140076 
	C357.638550,418.588715 345.723267,404.537933 334.179443,390.157043 
	C329.443542,384.257202 331.646179,376.241943 338.691650,374.332306 
	C346.991364,372.082672 355.357941,370.071960 364.059326,367.703827 
M393.391388,380.166290 
	C380.926971,381.652771 368.589325,383.690887 356.406799,387.956909 
	C357.116913,389.522339 357.356689,390.537445 357.944763,391.274780 
	C367.608215,403.390778 377.852722,414.984772 390.321381,424.308868 
	C398.644409,430.532776 407.722015,430.440308 416.607635,425.548706 
	C425.435272,420.689026 429.807983,412.545135 429.358276,402.824829 
	C428.901703,392.956635 423.965607,385.101105 414.411163,380.977020 
	C407.844543,378.142578 401.053009,379.139465 393.391388,380.166290 
z"/>
<path fill="#000000" opacity="1.000000" stroke="none" 
	d="
M149.621826,205.692810 
	C157.902359,197.695297 168.021606,196.312622 176.689362,201.737747 
	C184.325974,206.517471 188.156281,216.308792 185.543762,224.762512 
	C182.744644,233.819977 176.373642,239.116699 167.129425,240.026016 
	C158.683533,240.856812 151.739090,237.225174 147.515060,229.729538 
	C142.908157,221.554474 143.552246,213.485321 149.621826,205.692810 
M164.707413,215.395233 
	C161.997055,216.145187 160.755066,217.915878 161.733124,220.588287 
	C162.375839,222.344391 163.836929,223.710876 165.964630,223.226028 
	C167.853165,222.795670 169.385162,221.526474 169.436722,219.502350 
	C169.500916,216.982819 167.897217,215.642227 164.707413,215.395233 
z"/>
<path fill="#000000" opacity="1.000000" stroke="none" 
	d="
M269.026642,97.073692 
	C261.087097,103.616547 253.600967,110.173485 245.650299,116.108055 
	C239.065506,121.023102 232.069016,118.361122 229.927673,110.216003 
	C226.185928,95.983307 222.661163,81.674759 220.682999,67.064499 
	C219.353851,57.247650 217.778030,47.493526 219.491089,37.439072 
	C222.117477,22.023769 235.641403,7.694678 251.188080,4.773107 
	C274.688843,0.356789 294.964233,12.386775 301.496307,35.261261 
	C305.494446,49.262321 302.219299,62.019634 292.837433,73.241066 
	C285.676727,81.805847 277.799835,89.626854 269.026642,97.073692 
M258.690704,21.265041 
	C245.554214,22.075130 236.248764,31.915340 236.159698,45.102386 
	C236.062408,59.508141 239.115387,73.461357 242.205200,87.414864 
	C243.513214,93.321823 244.982086,94.079651 249.677292,90.429474 
	C260.342133,82.138382 270.253967,73.005157 279.106995,62.782921 
	C286.352844,54.416466 288.034912,44.955093 283.116394,34.977875 
	C278.403168,25.417038 270.279816,20.934418 258.690704,21.265041 
z"/>
<path fill="#000000" opacity="1.000000" stroke="none" 
	d="
M68.550354,61.913177 
	C84.350670,65.380325 93.650360,75.338509 99.200363,89.573471 
	C106.705864,108.823982 110.492752,129.001251 114.196190,149.186081 
	C115.726555,157.526947 110.159988,162.027374 101.151817,159.977448 
	C91.953270,157.884186 82.779205,155.647141 73.682045,153.153397 
	C61.183884,149.727356 48.940434,145.505188 37.561615,139.197540 
	C25.906755,132.736862 19.466709,122.805458 17.552008,109.507278 
	C15.537361,95.514961 19.410135,83.501663 28.849579,73.446884 
	C34.847996,67.057442 42.592812,63.042595 51.406902,61.708565 
	C56.958065,60.868389 62.572437,60.314152 68.550354,61.913177 
M63.798992,78.458023 
	C47.606869,76.386101 37.302681,86.181786 34.559902,98.124275 
	C31.625555,110.900909 38.823017,121.766853 53.257637,127.631248 
	C64.684074,132.273499 76.372368,136.024887 88.301430,139.083038 
	C90.206650,139.571457 92.122665,140.323135 94.087044,139.053421 
	C94.206558,138.571259 94.496803,138.068573 94.414024,137.637527 
	C91.590324,122.933624 87.889313,108.472443 82.524208,94.463661 
	C79.299049,86.042503 73.323151,80.813774 63.798992,78.458023 
z"/>
<path fill="#000000" opacity="1.000000" stroke="none" 
	d="
M50.199532,357.452881 
	C50.988567,356.121338 51.516922,355.070129 52.197155,354.128662 
	C55.230873,349.930023 59.576351,348.777374 63.506607,351.076477 
	C67.323837,353.309448 68.536491,357.830292 66.304810,362.461304 
	C64.477013,366.254181 62.710682,369.905243 64.178223,374.325562 
	C67.040611,382.947266 75.884827,386.115021 83.369125,381.030853 
	C84.739799,380.099731 85.927734,378.903015 87.226204,377.861511 
	C90.907333,374.908936 95.559494,374.899017 98.551483,377.817566 
	C101.762077,380.949341 101.898674,385.077332 98.925110,389.107300 
	C88.065788,403.824432 64.850708,403.754913 53.369488,388.812134 
	C46.016720,379.242584 45.043232,368.785950 50.199532,357.452881 
z"/>
<path fill="#000000" opacity="1.000000" stroke="none" 
	d="
M64.545654,336.521423 
	C42.450985,333.536987 31.303804,309.249054 43.465355,291.425659 
	C46.618404,286.804749 50.883244,285.471802 54.952278,287.835571 
	C59.184799,290.294312 60.130032,294.815643 57.483971,299.945282 
	C53.997677,306.703735 54.757175,313.449890 59.429935,317.230011 
	C64.593292,321.407013 71.678543,320.771912 77.550247,315.605743 
	C82.332214,311.398376 86.841614,311.102417 90.299271,314.769104 
	C93.433746,318.093048 93.092621,323.147583 89.196388,327.290497 
	C82.639748,334.262177 74.463440,337.206116 64.545654,336.521423 
z"/>
<path fill="#000000" opacity="1.000000" stroke="none" 
	d="
M109.805389,369.345764 
	C94.969788,358.299133 94.842407,339.315460 102.643356,328.683289 
	C104.939316,325.554047 107.880943,324.114594 111.706047,324.810852 
	C115.022514,325.414551 116.756439,327.773773 117.794357,330.771881 
	C118.714188,333.428864 117.419220,335.614197 116.312088,337.861633 
	C112.825279,344.939728 113.827660,351.604340 118.917877,355.443573 
	C124.073669,359.332306 130.427399,358.548553 136.517227,353.272675 
	C141.178162,349.234711 145.410599,348.943298 148.927368,352.418182 
	C152.427826,355.876984 151.995026,360.820587 147.810822,365.171509 
	C137.488388,375.905243 123.213379,377.564362 109.805389,369.345764 
z"/>
</svg>